<mxfile host="app.diagrams.net" modified="2024-01-23T17:20:16.078Z" agent="Mozilla/5.0 (Windows NT 10.0; Win64; x64) AppleWebKit/537.36 (KHTML, like Gecko) Chrome/120.0.0.0 Safari/537.36 Edg/120.0.0.0" etag="ZYlA5_LjXOO6HxLdmVvt" version="22.1.19" type="github">
  <diagram name="Seite-1" id="HcPJ5ijRzYoFEwjIwUG0">
    <mxGraphModel dx="1372" dy="707" grid="1" gridSize="10" guides="1" tooltips="1" connect="1" arrows="1" fold="1" page="1" pageScale="1" pageWidth="1169" pageHeight="827" math="0" shadow="0">
      <root>
        <mxCell id="0" />
        <mxCell id="1" parent="0" />
      </root>
    </mxGraphModel>
  </diagram>
</mxfile>
